<?xml version="1.0" standalone="no"?>
<!DOCTYPE svg PUBLIC "-//W3C//DTD SVG 20010904//EN"
 "http://www.w3.org/TR/2001/REC-SVG-20010904/DTD/svg10.dtd">
<svg version="1.0" xmlns="http://www.w3.org/2000/svg"
 width="512.000000pt" height="512.000000pt" viewBox="0 0 512.000000 512.000000"
 preserveAspectRatio="xMidYMid meet">

<g transform="translate(0.000000,512.000000) scale(0.100000,-0.100000)"
fill="#000000" stroke="none">
<path d="M3680 4599 c-32 -13 -77 -56 -98 -94 -16 -28 -17 -182 -20 -1944 l-2
-1915 24 -37 c56 -84 139 -116 219 -85 65 24 99 65 108 128 4 29 8 903 8 1941
1 2058 5 1911 -56 1969 -41 40 -131 58 -183 37z"/>
<path d="M1329 4404 c-57 -17 -103 -66 -120 -126 -10 -33 -12 -436 -12 -1728
1 -1543 2 -1689 17 -1725 22 -52 43 -74 91 -96 54 -25 111 -24 159 4 70 40 78
60 87 209 4 73 8 853 8 1734 l1 1600 -29 47 c-47 73 -125 105 -202 81z"/>
<path d="M3071 3798 c-28 -14 -54 -37 -72 -67 l-29 -45 0 -1132 0 -1131 30
-39 c61 -78 145 -102 225 -65 55 25 86 62 96 113 4 24 8 545 9 1158 l0 1115
-31 38 c-62 75 -146 96 -228 55z"/>
<path d="M705 3601 c-44 -26 -83 -77 -90 -114 -7 -43 -11 -673 -7 -1333 l2
-541 28 -36 c73 -98 225 -100 293 -6 l24 34 0 957 c0 955 0 957 -21 985 -50
68 -163 95 -229 54z"/>
<path d="M4291 3419 c-39 -8 -76 -34 -105 -73 -21 -27 -21 -35 -21 -785 l0
-758 28 -36 c37 -49 78 -69 141 -69 63 -1 106 20 143 68 25 33 28 47 35 158 4
66 5 407 1 756 -5 603 -7 636 -25 662 -42 60 -125 92 -197 77z"/>
<path d="M1861 3385 c-75 -68 -71 -17 -71 -840 l0 -738 48 -47 c58 -59 109
-77 170 -61 51 14 103 58 128 109 18 35 19 72 17 765 l-3 727 -27 41 c-36 54
-87 79 -163 79 -55 0 -63 -3 -99 -35z"/>
<path d="M2518 3030 c-45 -13 -92 -47 -111 -80 -12 -19 -22 -67 -28 -128 -11
-113 -2 -572 12 -619 13 -42 79 -100 124 -109 89 -16 165 20 208 99 22 41 22
48 21 373 -2 366 -1 363 -69 422 -19 18 -47 34 -60 37 -57 12 -71 12 -97 5z"/>
<path d="M4865 3025 c-22 -7 -57 -33 -77 -56 l-38 -42 -2 -236 c-5 -380 0
-480 24 -519 30 -48 94 -82 157 -82 99 0 155 54 173 167 7 44 9 172 5 367 l-6
299 -38 39 c-66 68 -129 88 -198 63z"/>
<path d="M103 3004 c-22 -15 -52 -46 -65 -68 -23 -41 -23 -41 -21 -384 l1
-344 27 -40 c50 -76 183 -103 253 -51 59 44 69 72 77 218 4 74 5 233 3 353 -5
242 -9 259 -74 309 -29 21 -50 28 -98 31 -53 3 -66 0 -103 -24z"/>
</g>
</svg>
